<svg width="124" height="84" viewBox="0 0 124 84" fill="none" xmlns="http://www.w3.org/2000/svg">
<path d="M33.286 2.88C30.886 2.752 28.742 3.024 26.854 3.696C24.998 4.368 23.414 5.28 22.102 6.432C20.822 7.552 19.83 8.784 19.126 10.128C18.454 11.472 18.118 12.768 18.118 14.016C18.118 15.2 18.39 16.176 18.934 16.944C19.478 17.68 20.182 18.224 21.046 18.576C21.942 18.928 22.854 19.104 23.782 19.104C24.934 19.104 25.942 18.864 26.806 18.384C27.67 17.904 28.39 17.328 28.966 16.656C29.574 15.952 30.022 15.296 30.31 14.688C30.63 14.048 30.79 13.584 30.79 13.296V13.248C30.95 13.056 31.11 12.96 31.27 12.96C31.59 12.96 31.75 13.184 31.75 13.632C31.59 15.008 31.094 16.208 30.262 17.232C29.462 18.256 28.486 19.04 27.334 19.584C26.182 20.128 24.966 20.4 23.686 20.4C22.374 20.4 21.11 20.08 19.894 19.44C18.678 18.8 17.686 17.872 16.918 16.656C16.15 15.44 15.766 13.968 15.766 12.24C15.766 10.832 16.07 9.44 16.678 8.064C17.318 6.656 18.262 5.376 19.51 4.224C20.79 3.04 22.406 2.096 24.358 1.392C26.31 0.687999 28.614 0.335999 31.27 0.335999C33.51 0.335999 35.542 0.543999 37.366 0.959999C39.222 1.344 40.982 1.84 42.646 2.448C44.342 3.056 46.038 3.664 47.734 4.272C48.278 3.568 48.934 2.848 49.702 2.112C50.502 1.376 51.318 1.008 52.15 1.008C52.79 1.008 53.11 1.2 53.11 1.584C53.11 1.968 52.886 2.16 52.438 2.16C51.862 2.16 51.254 2.464 50.614 3.072C49.974 3.648 49.462 4.192 49.078 4.704L49.174 4.752C50.806 5.264 52.534 5.76 54.358 6.24C56.214 6.688 58.054 7.056 59.878 7.344C61.702 7.6 63.382 7.728 64.918 7.728C66.358 7.728 67.382 7.616 67.99 7.392C68.63 7.168 68.95 6.8 68.95 6.288C68.95 5.808 69.078 5.568 69.334 5.568C69.59 5.568 69.75 5.712 69.814 6C69.91 6.256 69.958 6.464 69.958 6.624C69.958 7.392 69.494 8.016 68.566 8.496C67.638 8.976 66.198 9.216 64.246 9.216C63.414 9.216 62.358 9.136 61.078 8.976C59.798 8.784 58.406 8.528 56.902 8.208C55.43 7.888 53.958 7.52 52.486 7.104C51.046 6.688 49.718 6.256 48.502 5.808C48.47 5.808 48.438 5.792 48.406 5.76C48.022 6.432 47.702 7.04 47.446 7.584C47.19 8.096 46.902 8.784 46.582 9.648C46.006 11.152 45.43 12.704 44.854 14.304C44.31 15.872 43.798 17.328 43.318 18.672C42.838 19.984 42.454 21.056 42.166 21.888C41.206 24.704 39.926 27.44 38.326 30.096C36.726 32.752 34.838 35.152 32.662 37.296C30.486 39.44 28.022 41.136 25.27 42.384C22.518 43.664 19.494 44.304 16.198 44.304C14.342 44.304 12.454 44.08 10.534 43.632C8.64602 43.216 6.90202 42.512 5.30202 41.52C3.73402 40.528 2.47002 39.184 1.51002 37.488C0.550023 35.824 0.0700233 33.744 0.0700233 31.248C0.0700233 29.456 0.374023 27.776 0.982023 26.208C1.59002 24.64 2.39002 23.376 3.38202 22.416C4.37402 21.424 5.43002 20.928 6.55002 20.928C6.93402 20.928 7.12602 21.024 7.12602 21.216C7.12602 21.408 6.91802 21.568 6.50202 21.696C5.70202 21.888 4.91802 22.384 4.15002 23.184C3.41402 23.952 2.80602 24.976 2.32602 26.256C1.84602 27.536 1.60602 29.056 1.60602 30.816C1.60602 32.928 2.03802 34.656 2.90202 36C3.79802 37.344 4.93402 38.4 6.31002 39.168C7.68602 39.936 9.11002 40.464 10.582 40.752C12.086 41.072 13.462 41.232 14.71 41.232C17.846 41.232 20.726 40.672 23.35 39.552C26.006 38.464 28.406 36.944 30.55 34.992C32.694 33.04 34.582 30.8 36.214 28.272C37.846 25.712 39.238 22.976 40.39 20.064C41.03 18.464 41.75 16.736 42.55 14.88C43.35 12.992 44.118 11.216 44.854 9.552C45.75 7.632 46.486 6.208 47.062 5.28C45.398 4.736 43.462 4.24 41.254 3.792C39.078 3.344 36.422 3.04 33.286 2.88ZM51.142 14.304C52.166 12.096 53.142 10.8 54.07 10.416C55.222 10 56.022 9.792 56.47 9.792C56.63 9.792 56.71 9.824 56.71 9.888C56.71 9.984 56.518 10.144 56.134 10.368C55.91 10.464 55.526 10.912 54.982 11.712C54.47 12.512 53.894 13.6 53.254 14.976C52.838 15.904 52.358 17.088 51.814 18.528C51.27 19.968 50.71 21.536 50.134 23.232C49.558 24.928 48.998 26.624 48.454 28.32C47.942 30.016 47.478 31.6 47.062 33.072C46.678 34.544 46.406 35.76 46.246 36.72C46.182 37.2 45.958 37.552 45.574 37.776C45.222 38 44.806 38.112 44.326 38.112C43.91 38.112 43.542 38.016 43.222 37.824C42.902 37.664 42.79 37.408 42.886 37.056C43.174 35.936 43.558 34.608 44.038 33.072C44.55 31.504 45.11 29.856 45.718 28.128C46.326 26.368 46.95 24.624 47.59 22.896C48.262 21.168 48.902 19.568 49.51 18.096C50.118 16.592 50.662 15.328 51.142 14.304ZM53.302 33.312C53.302 32.384 53.398 31.424 53.59 30.432C53.814 29.408 54.038 28.448 54.262 27.552C54.774 25.696 55.478 23.68 56.374 21.504C57.27 19.296 58.182 17.216 59.11 15.264C59.654 14.144 60.23 13.264 60.838 12.624C61.446 11.952 61.974 11.536 62.422 11.376C63.702 10.96 64.582 10.752 65.062 10.752C65.254 10.752 65.35 10.784 65.35 10.848C65.35 10.944 65.126 11.104 64.678 11.328C64.454 11.424 64.038 11.872 63.43 12.672C62.854 13.472 62.198 14.56 61.462 15.936C60.47 17.792 59.606 19.76 58.87 21.84C58.134 23.888 57.542 25.856 57.094 27.744C56.966 28.384 56.79 29.216 56.566 30.24C56.374 31.232 56.278 32.192 56.278 33.12C56.278 33.952 56.406 34.672 56.662 35.28C56.918 35.888 57.398 36.192 58.102 36.192C58.87 36.192 59.622 35.872 60.358 35.232C61.094 34.592 61.782 33.792 62.422 32.832C63.094 31.84 63.702 30.8 64.246 29.712C64.79 28.624 65.254 27.632 65.638 26.736C66.022 26.736 66.214 26.88 66.214 27.168C65.766 28.224 65.254 29.376 64.678 30.624C64.102 31.84 63.446 33.008 62.71 34.128C61.974 35.216 61.142 36.096 60.214 36.768C59.286 37.472 58.246 37.824 57.094 37.824C55.622 37.824 54.614 37.376 54.07 36.48C53.558 35.616 53.302 34.56 53.302 33.312Z" fill="black"/>
<path d="M92.358 75.5887C89.03 75.5887 86.278 75.1247 84.102 74.1967C81.958 73.2687 80.358 72.0527 79.302 70.5487C78.278 69.0447 77.766 67.4447 77.766 65.7487C77.766 63.8287 78.262 62.0847 79.254 60.5167C80.246 58.9487 81.542 57.5887 83.142 56.4367C84.774 55.2847 86.566 54.3727 88.518 53.7007C90.47 53.0287 92.39 52.6447 94.278 52.5487C92.614 51.9407 91.254 51.1087 90.198 50.0527C89.174 48.9647 88.662 47.7807 88.662 46.5007C88.662 45.1887 89.062 43.9407 89.862 42.7567C90.694 41.5407 91.798 40.4367 93.174 39.4447C94.55 38.4207 96.102 37.5407 97.83 36.8047C99.59 36.0687 101.414 35.5087 103.302 35.1247C105.19 34.7087 107.014 34.5007 108.774 34.5007C111.622 34.5007 113.894 34.9807 115.59 35.9407C117.286 36.9007 118.134 38.1327 118.134 39.6367C118.134 41.0127 117.382 42.3727 115.878 43.7167C114.406 45.0607 112.358 46.0207 109.734 46.5967C109.222 46.6927 108.886 46.7407 108.726 46.7407C108.374 46.7407 108.198 46.5967 108.198 46.3087C108.198 46.2127 108.246 46.1487 108.342 46.1167C108.47 46.0527 108.726 45.9567 109.11 45.8287C110.998 45.1887 112.502 44.2927 113.622 43.1407C114.742 41.9567 115.302 40.7087 115.302 39.3967C115.302 38.2767 114.758 37.3807 113.67 36.7087C112.614 36.0047 111.014 35.6527 108.87 35.6527C106.95 35.6527 105.014 35.9247 103.062 36.4687C101.11 37.0127 99.318 37.7807 97.686 38.7727C96.054 39.7647 94.742 40.9007 93.75 42.1807C92.758 43.4607 92.262 44.8527 92.262 46.3567C92.262 47.4447 92.582 48.3247 93.222 48.9967C93.862 49.6687 94.678 50.2127 95.67 50.6287C96.662 51.0127 97.686 51.3327 98.742 51.5887C99.83 51.8127 100.822 52.0687 101.718 52.3567C102.038 52.4527 102.246 52.5807 102.342 52.7407C102.438 52.9007 102.486 53.0607 102.486 53.2207C102.486 53.6367 102.246 53.9887 101.766 54.2767C101.318 54.5647 100.678 54.7087 99.846 54.7087C99.334 54.7087 98.758 54.7087 98.118 54.7087C97.51 54.6767 96.854 54.6607 96.15 54.6607C95.158 54.6607 94.102 54.7087 92.982 54.8047C91.894 54.9007 90.694 55.1567 89.382 55.5727C87.718 56.0847 86.262 56.8847 85.014 57.9727C83.798 59.0607 82.854 60.2607 82.182 61.5727C81.51 62.8847 81.174 64.1807 81.174 65.4607C81.174 67.1247 81.558 68.6287 82.326 69.9727C83.094 71.3167 84.31 72.3727 85.974 73.1407C87.638 73.9407 89.83 74.3407 92.55 74.3407C95.046 74.3407 97.462 74.0207 99.798 73.3807C102.134 72.7407 104.294 71.9247 106.278 70.9327C108.262 69.9087 109.958 68.8527 111.366 67.7647C112.518 66.8367 113.446 65.8927 114.15 64.9327C114.886 63.9727 115.254 63.1407 115.254 62.4367C115.254 61.5407 114.63 60.9967 113.382 60.8047C113.062 60.7727 112.902 60.6767 112.902 60.5167C112.902 60.2607 113.126 60.1327 113.574 60.1327C114.502 60.1327 115.318 60.4527 116.022 61.0927C116.758 61.7007 117.126 62.4687 117.126 63.3967C117.126 65.2207 115.83 67.1407 113.238 69.1567C111.67 70.4047 109.75 71.5087 107.478 72.4687C105.238 73.4287 102.806 74.1807 100.182 74.7247C97.59 75.3007 94.982 75.5887 92.358 75.5887Z" fill="black"/>
<path d="M64.1034 56.272C63.3568 56.272 62.7168 56.0267 62.1834 55.536C61.6288 55.0667 61.3514 54.544 61.3514 53.968C61.3514 53.6907 61.4368 53.4133 61.6074 53.136C61.6501 53.0293 61.7248 52.9867 61.8314 53.008C61.9168 53.0293 61.9274 53.0933 61.8634 53.2C61.7354 53.4133 61.6714 53.616 61.6714 53.808C61.6714 54.1707 61.8634 54.4587 62.2474 54.672C62.6314 54.9067 63.1221 54.9813 63.7194 54.896C64.7008 54.768 65.5328 54.4053 66.2154 53.808C66.9194 53.2107 67.5168 52.4533 68.0074 51.536C68.5194 50.64 68.9461 49.7013 69.2874 48.72C69.2448 48.7413 69.1808 48.752 69.0954 48.752C69.0101 48.7733 68.9248 48.784 68.8394 48.784C68.7541 48.784 68.6581 48.784 68.5514 48.784C67.5701 48.784 66.7701 48.464 66.1514 47.824C65.5328 47.184 65.2234 46.3947 65.2234 45.456C65.2234 44.6667 65.4794 43.824 65.9914 42.928C66.5034 42.032 67.3461 41.1893 68.5194 40.4C69.0101 40.0587 69.5328 39.728 70.0874 39.408C70.6634 39.0667 71.2394 38.7253 71.8154 38.384C72.0714 37.3387 72.4448 36.4107 72.9354 35.6C73.4261 34.768 74.1301 34.2987 75.0474 34.192C75.4314 34.1493 75.7728 34.2133 76.0714 34.384C76.3914 34.5547 76.5514 34.8107 76.5514 35.152C76.5514 35.344 76.4448 35.5573 76.2314 35.792C76.0394 36.0267 75.7834 36.2507 75.4634 36.464C74.9941 36.8053 74.5461 37.1147 74.1194 37.392C73.7141 37.6693 73.2981 37.9573 72.8714 38.256C72.6794 38.7467 72.4768 39.3013 72.2634 39.92C72.0714 40.5387 71.8581 41.2213 71.6234 41.968H75.1114C75.7301 41.968 76.1568 41.9253 76.3914 41.84C76.6261 41.7547 76.7861 41.6693 76.8714 41.584C76.9141 41.5413 76.9461 41.5307 76.9674 41.552C77.0101 41.552 77.0314 41.5733 77.0314 41.616C76.9888 42.064 76.7754 42.3733 76.3914 42.544C76.0288 42.6933 75.6554 42.7893 75.2714 42.832C75.0794 43.5787 74.7061 44.3467 74.1514 45.136C73.5968 45.904 72.9461 46.5973 72.1994 47.216C71.4741 47.8347 70.7168 48.2827 69.9274 48.56C69.6501 49.5413 69.3194 50.512 68.9354 51.472C68.5514 52.432 68.1034 53.2853 67.5914 54.032C67.1008 54.7787 66.5248 55.3547 65.8634 55.76C65.2661 56.1013 64.6794 56.272 64.1034 56.272ZM73.1274 37.616C73.4901 37.3813 73.8421 37.1573 74.1834 36.944C74.5461 36.7093 74.8874 36.4747 75.2074 36.24C75.5061 36.0053 75.7194 35.7813 75.8474 35.568C75.9754 35.3547 76.0394 35.1627 76.0394 34.992C76.0394 34.672 75.8794 34.512 75.5594 34.512C75.3888 34.512 75.1861 34.5867 74.9514 34.736C74.7168 34.8853 74.4821 35.1413 74.2474 35.504C74.0768 35.76 73.8954 36.0693 73.7034 36.432C73.5328 36.7733 73.3408 37.168 73.1274 37.616ZM69.5114 47.984C69.7888 47.1733 70.0234 46.3733 70.2154 45.584C70.4288 44.7733 70.6314 44.0693 70.8234 43.472L71.0154 42.672C70.4394 42.7147 69.9168 42.8427 69.4474 43.056C68.9994 43.248 68.6688 43.6 68.4554 44.112C68.3488 44.3893 68.2954 44.6347 68.2954 44.848C68.2954 45.2107 68.4128 45.5093 68.6474 45.744C68.6901 45.7653 68.6688 45.7973 68.5834 45.84C68.5194 45.8613 68.4661 45.8507 68.4234 45.808C68.1034 45.5307 67.9434 45.136 67.9434 44.624C67.9434 43.9413 68.2314 43.3333 68.8074 42.8C69.3834 42.2453 70.1088 41.968 70.9834 41.968H71.1434L71.6554 39.088C71.1434 39.4507 70.6421 39.8347 70.1514 40.24C69.6608 40.6453 69.1808 41.072 68.7114 41.52C68.0074 42.2027 67.4954 42.8853 67.1754 43.568C66.8768 44.2293 66.7274 44.8373 66.7274 45.392C66.7274 46.1387 66.9621 46.7573 67.4314 47.248C67.9221 47.7387 68.5301 47.984 69.2554 47.984H69.5114ZM70.1194 47.888C70.8661 47.7173 71.5381 47.3653 72.1354 46.832C72.7328 46.2987 73.2341 45.68 73.6394 44.976C74.0661 44.2507 74.3541 43.536 74.5034 42.832C74.0768 42.8107 73.5968 42.7787 73.0634 42.736C72.5301 42.672 71.9861 42.64 71.4314 42.64L71.3674 42.928C71.1968 43.5467 71.0048 44.2933 70.7914 45.168C70.5994 46.0427 70.3754 46.9493 70.1194 47.888Z" fill="black"/>
</svg>
