<svg width="120" height="86" viewBox="0 0 120 86" fill="none" xmlns="http://www.w3.org/2000/svg">
<path d="M29.0051 41.072C27.5971 41.072 26.6051 40.512 26.0291 39.392C25.4531 38.304 25.1651 37.024 25.1651 35.552C25.1651 34.24 25.3411 32.944 25.6931 31.664C26.0771 30.384 26.5251 29.408 27.0371 28.736C26.1731 29.76 25.1011 30.928 23.8211 32.24C22.5411 33.552 21.1331 34.816 19.5971 36.032C18.0611 37.248 16.4771 38.256 14.8451 39.056C13.2131 39.856 11.5971 40.256 9.99714 40.256C7.88514 40.256 6.30114 39.584 5.24514 38.24C4.22114 36.896 3.70914 35.056 3.70914 32.72C3.70914 30.896 4.01314 28.944 4.62114 26.864C5.26114 24.752 6.18914 22.608 7.40514 20.432C7.98114 19.376 8.62114 18.336 9.32514 17.312C10.0611 16.256 10.8451 15.264 11.6771 14.336C10.6851 13.856 9.72514 13.328 8.79714 12.752C7.86914 12.144 7.11714 11.424 6.54114 10.592C5.96514 9.76 5.67714 8.768 5.67714 7.616C5.67714 7.008 5.80514 6.464 6.06114 5.984C6.34914 5.472 6.65314 5.216 6.97314 5.216C7.26114 5.216 7.40514 5.392 7.40514 5.744C7.40514 5.968 7.34114 6.208 7.21314 6.464C7.05314 6.88 6.97314 7.264 6.97314 7.616C6.97314 8.48 7.27714 9.296 7.88514 10.064C8.49314 10.8 9.22914 11.44 10.0931 11.984C10.9571 12.528 11.7571 12.96 12.4931 13.28C14.5411 11.04 16.7811 8.976 19.2131 7.088C21.6771 5.168 24.3171 3.632 27.1331 2.48C29.9491 1.328 32.9091 0.751999 36.0131 0.751999C38.6051 0.751999 40.6371 1.328 42.1091 2.48C43.5811 3.6 44.3171 5.056 44.3171 6.848C44.3171 8.448 43.8531 9.824 42.9251 10.976C42.0291 12.096 40.8451 13.04 39.3731 13.808C37.9011 14.544 36.3011 15.136 34.5731 15.584C32.8771 16 31.1971 16.304 29.5331 16.496C27.8691 16.656 26.4131 16.736 25.1651 16.736C23.3411 16.736 21.5651 16.624 19.8371 16.4C18.1411 16.176 16.4451 15.824 14.7491 15.344C13.9171 16.528 13.0051 17.904 12.0131 19.472C11.0531 21.008 10.1251 22.64 9.22914 24.368C8.36514 26.064 7.64514 27.76 7.06914 29.456C6.52514 31.12 6.25314 32.672 6.25314 34.112C6.25314 35.68 6.62114 36.864 7.35714 37.664C8.09314 38.432 9.08514 38.816 10.3331 38.816C11.8371 38.816 13.4211 38.368 15.0851 37.472C16.7811 36.544 18.4771 35.344 20.1731 33.872C21.8691 32.4 23.4851 30.8 25.0211 29.072C26.5571 27.344 27.9331 25.632 29.1491 23.936C30.3651 22.24 31.3251 20.736 32.0291 19.424C32.5731 18.4 33.1011 17.68 33.6131 17.264C34.1251 16.816 34.5571 16.592 34.9091 16.592C35.2611 16.592 35.5331 16.736 35.7251 17.024C35.9171 17.28 36.0131 17.632 36.0131 18.08C36.0131 18.976 35.6131 19.872 34.8131 20.768C33.7251 22.016 32.6691 23.536 31.6451 25.328C30.6211 27.088 29.7891 28.944 29.1491 30.896C28.5091 32.816 28.1891 34.624 28.1891 36.32C28.1891 37.504 28.3651 38.352 28.7171 38.864C29.1011 39.376 29.5971 39.632 30.2051 39.632C31.1331 39.632 32.0611 39.312 32.9891 38.672C33.9491 38.064 34.8611 37.232 35.7251 36.176C36.5891 35.12 37.3891 33.952 38.1251 32.672C38.8611 31.36 39.5011 30.048 40.0451 28.736C40.2051 28.736 40.3331 28.752 40.4291 28.784C40.5571 28.816 40.6211 28.944 40.6211 29.168C40.0771 30.544 39.4211 31.936 38.6531 33.344C37.9171 34.752 37.0691 36.048 36.1091 37.232C35.1491 38.384 34.0771 39.312 32.8931 40.016C31.7091 40.72 30.4131 41.072 29.0051 41.072ZM24.7331 15.584C26.0131 15.584 27.4371 15.52 29.0051 15.392C30.5731 15.232 32.1251 14.96 33.6611 14.576C35.2291 14.192 36.6691 13.648 37.9811 12.944C39.2931 12.24 40.3491 11.344 41.1491 10.256C41.9491 9.168 42.3491 7.84 42.3491 6.272C42.3491 4.864 41.7571 3.792 40.5731 3.056C39.4211 2.32 37.9491 1.952 36.1571 1.952C33.1811 1.952 30.4611 2.544 27.9971 3.728C25.5651 4.88 23.3251 6.4 21.2771 8.288C19.2611 10.176 17.3411 12.208 15.5171 14.384C16.9251 14.8 18.3651 15.104 19.8371 15.296C21.3411 15.488 22.9731 15.584 24.7331 15.584Z" fill="black"/>
<path d="M95.7186 77.7985C92.8066 77.7985 90.2146 77.2065 87.9426 76.0225C85.7026 74.8705 83.9426 73.1585 82.6626 70.8865C81.4146 68.5825 80.7906 65.7665 80.7906 62.4385C80.7906 60.4545 81.0466 58.4705 81.5586 56.4865C82.0706 54.5025 82.7586 52.5985 83.6226 50.7745C84.5186 48.9505 85.5106 47.2705 86.5986 45.7345C86.1186 43.8145 85.8786 41.7345 85.8786 39.4945C85.8786 37.7985 86.0706 36.1825 86.4546 34.6465C86.5826 34.1985 86.8066 33.9745 87.1266 33.9745C87.3826 33.9745 87.4946 34.1345 87.4626 34.4545C87.3666 35.0945 87.2866 35.7825 87.2226 36.5185C87.1586 37.2225 87.1266 38.0705 87.1266 39.0625C87.1266 40.9185 87.3026 42.6785 87.6546 44.3425C87.9746 43.9265 88.2946 43.5425 88.6146 43.1905C89.9266 41.7505 91.4786 40.4065 93.2706 39.1585C95.0626 37.8785 97.0466 36.8545 99.2226 36.0865C101.431 35.3185 103.767 34.9345 106.231 34.9345C108.535 34.9345 110.647 35.3665 112.567 36.2305C114.487 37.0625 116.023 38.2785 117.175 39.8785C118.359 41.4465 118.951 43.3505 118.951 45.5905C118.951 46.9985 118.567 48.4385 117.799 49.9105C117.063 51.3825 115.991 52.7425 114.583 53.9905C113.207 55.2065 111.527 56.1985 109.543 56.9665C107.591 57.7345 105.399 58.1185 102.967 58.1185C99.7666 58.1185 96.8386 57.4145 94.1826 56.0065C91.5266 54.5985 89.4626 52.4545 87.9906 49.5745C86.7106 51.8465 85.7666 54.1505 85.1586 56.4865C84.5506 58.8225 84.2466 61.0465 84.2466 63.1585C84.2466 66.2305 84.7586 68.7265 85.7826 70.6465C86.8066 72.5665 88.2146 73.9745 90.0066 74.8705C91.8306 75.7985 93.9106 76.2625 96.2466 76.2625C100.407 76.2625 104.055 75.2065 107.191 73.0945C110.359 71.0145 112.967 67.7825 115.015 63.3985C115.399 63.3985 115.591 63.5425 115.591 63.8305C113.607 68.5665 110.887 72.0705 107.431 74.3425C104.007 76.6465 100.103 77.7985 95.7186 77.7985ZM90.0546 46.3585C89.6386 46.9345 89.2386 47.5265 88.8546 48.1345C89.9746 50.7585 91.6866 52.8705 93.9906 54.4705C96.2946 56.0705 99.1906 56.8705 102.679 56.8705C104.887 56.8705 106.855 56.5345 108.583 55.8625C110.343 55.1905 111.815 54.2945 112.999 53.1745C114.215 52.0545 115.143 50.8225 115.783 49.4785C116.423 48.1025 116.743 46.7265 116.743 45.3505C116.743 43.6545 116.279 42.1665 115.351 40.8865C114.455 39.6065 113.223 38.6145 111.655 37.9105C110.087 37.1745 108.311 36.8065 106.327 36.8065C104.343 36.8065 102.343 37.2225 100.327 38.0545C98.3426 38.8865 96.4546 40.0225 94.6626 41.4625C92.9026 42.9025 91.3666 44.5345 90.0546 46.3585Z" fill="black"/>
<path d="M51.9388 53.9692C51.1922 53.9692 50.5522 53.7238 50.0188 53.2332C49.4642 52.7638 49.1868 52.2412 49.1868 51.6652C49.1868 51.3878 49.2722 51.1105 49.4428 50.8332C49.4855 50.7265 49.5602 50.6838 49.6668 50.7052C49.7522 50.7265 49.7628 50.7905 49.6988 50.8972C49.5708 51.1105 49.5068 51.3132 49.5068 51.5052C49.5068 51.8678 49.6988 52.1558 50.0828 52.3692C50.4668 52.6038 50.9575 52.6785 51.5548 52.5932C52.5362 52.4652 53.3682 52.1025 54.0508 51.5052C54.7548 50.9078 55.3522 50.1505 55.8428 49.2332C56.3548 48.3372 56.7815 47.3985 57.1228 46.4172C57.0802 46.4385 57.0162 46.4492 56.9308 46.4492C56.8455 46.4705 56.7602 46.4812 56.6748 46.4812C56.5895 46.4812 56.4935 46.4812 56.3868 46.4812C55.4055 46.4812 54.6055 46.1612 53.9868 45.5212C53.3682 44.8812 53.0588 44.0918 53.0588 43.1532C53.0588 42.3638 53.3148 41.5212 53.8268 40.6252C54.3388 39.7292 55.1815 38.8865 56.3548 38.0972C56.8455 37.7558 57.3682 37.4252 57.9228 37.1052C58.4988 36.7638 59.0748 36.4225 59.6508 36.0812C59.9068 35.0358 60.2802 34.1078 60.7708 33.2972C61.2615 32.4652 61.9655 31.9958 62.8828 31.8892C63.2668 31.8465 63.6082 31.9105 63.9068 32.0812C64.2268 32.2518 64.3868 32.5078 64.3868 32.8492C64.3868 33.0412 64.2802 33.2545 64.0668 33.4892C63.8748 33.7238 63.6188 33.9478 63.2988 34.1612C62.8295 34.5025 62.3815 34.8118 61.9548 35.0892C61.5495 35.3665 61.1335 35.6545 60.7068 35.9532C60.5148 36.4438 60.3122 36.9985 60.0988 37.6172C59.9068 38.2358 59.6935 38.9185 59.4588 39.6652H62.9468C63.5655 39.6652 63.9922 39.6225 64.2268 39.5372C64.4615 39.4518 64.6215 39.3665 64.7068 39.2812C64.7495 39.2385 64.7815 39.2278 64.8028 39.2492C64.8455 39.2492 64.8668 39.2705 64.8668 39.3132C64.8242 39.7612 64.6108 40.0705 64.2268 40.2412C63.8642 40.3905 63.4908 40.4865 63.1068 40.5292C62.9148 41.2758 62.5415 42.0438 61.9868 42.8332C61.4322 43.6012 60.7815 44.2945 60.0348 44.9132C59.3095 45.5318 58.5522 45.9798 57.7628 46.2572C57.4855 47.2385 57.1548 48.2092 56.7708 49.1692C56.3868 50.1292 55.9388 50.9825 55.4268 51.7292C54.9362 52.4758 54.3602 53.0518 53.6988 53.4572C53.1015 53.7985 52.5148 53.9692 51.9388 53.9692ZM60.9628 35.3132C61.3255 35.0785 61.6775 34.8545 62.0188 34.6412C62.3815 34.4065 62.7228 34.1718 63.0428 33.9372C63.3415 33.7025 63.5548 33.4785 63.6828 33.2652C63.8108 33.0518 63.8748 32.8598 63.8748 32.6892C63.8748 32.3692 63.7148 32.2092 63.3948 32.2092C63.2242 32.2092 63.0215 32.2838 62.7868 32.4332C62.5522 32.5825 62.3175 32.8385 62.0828 33.2012C61.9122 33.4572 61.7308 33.7665 61.5388 34.1292C61.3682 34.4705 61.1762 34.8652 60.9628 35.3132ZM57.3468 45.6812C57.6242 44.8705 57.8588 44.0705 58.0508 43.2812C58.2642 42.4705 58.4668 41.7665 58.6588 41.1692L58.8508 40.3692C58.2748 40.4118 57.7522 40.5398 57.2828 40.7532C56.8348 40.9452 56.5042 41.2972 56.2908 41.8092C56.1842 42.0865 56.1308 42.3318 56.1308 42.5452C56.1308 42.9078 56.2482 43.2065 56.4828 43.4412C56.5255 43.4625 56.5042 43.4945 56.4188 43.5372C56.3548 43.5585 56.3015 43.5478 56.2588 43.5052C55.9388 43.2278 55.7788 42.8332 55.7788 42.3212C55.7788 41.6385 56.0668 41.0305 56.6428 40.4972C57.2188 39.9425 57.9442 39.6652 58.8188 39.6652H58.9788L59.4908 36.7852C58.9788 37.1478 58.4775 37.5318 57.9868 37.9372C57.4962 38.3425 57.0162 38.7692 56.5468 39.2172C55.8428 39.8998 55.3308 40.5825 55.0108 41.2652C54.7122 41.9265 54.5628 42.5345 54.5628 43.0892C54.5628 43.8358 54.7975 44.4545 55.2668 44.9452C55.7575 45.4358 56.3655 45.6812 57.0908 45.6812H57.3468ZM57.9548 45.5852C58.7015 45.4145 59.3735 45.0625 59.9708 44.5292C60.5682 43.9958 61.0695 43.3772 61.4748 42.6732C61.9015 41.9478 62.1895 41.2332 62.3388 40.5292C61.9122 40.5078 61.4322 40.4758 60.8988 40.4332C60.3655 40.3692 59.8215 40.3372 59.2668 40.3372L59.2028 40.6252C59.0322 41.2438 58.8402 41.9905 58.6268 42.8652C58.4348 43.7398 58.2108 44.6465 57.9548 45.5852Z" fill="black"/>
</svg>
