<svg width="151" height="126" viewBox="0 0 151 126" fill="none" xmlns="http://www.w3.org/2000/svg">
<path d="M44.9791 49.52C42.3098 49.52 40.0565 48.636 38.2191 46.868C36.3818 45.1 35.0125 42.7253 34.1111 39.744C33.2098 36.728 32.7591 33.3653 32.7591 29.656C32.7591 23.9707 33.7991 19.36 35.8791 15.824C37.9591 12.288 40.9925 10.52 44.9791 10.52C47.5445 10.52 49.7458 11.352 51.5831 13.016C53.4551 14.68 54.8765 16.968 55.8471 19.88C56.8178 22.7573 57.3031 26.016 57.3031 29.656C57.3031 33.296 56.8178 36.624 55.8471 39.64C54.8765 42.656 53.4551 45.0653 51.5831 46.868C49.7458 48.636 47.5445 49.52 44.9791 49.52ZM44.9791 48.48C47.2671 48.48 48.9831 47.648 50.1271 45.984C51.3058 44.32 52.0685 42.1707 52.4151 39.536C52.7618 36.8667 52.9351 33.5733 52.9351 29.656C52.9351 25.7733 52.7618 22.5667 52.4151 20.036C52.0685 17.5053 51.3058 15.46 50.1271 13.9C48.9831 12.34 47.2671 11.56 44.9791 11.56C42.5871 11.56 40.8191 12.34 39.6751 13.9C38.5311 15.4253 37.8205 17.4013 37.5431 19.828C37.2658 22.2547 37.1271 25.5307 37.1271 29.656C37.1271 33.816 37.2658 37.1613 37.5431 39.692C37.8205 42.2227 38.5311 44.32 39.6751 45.984C40.8191 47.648 42.5871 48.48 44.9791 48.48Z" fill="#7A3A14"/>
<path d="M109.971 49.52C107.475 49.52 105.447 48.948 103.887 47.804C102.327 46.6253 101.2 45.1867 100.507 43.488C99.8483 41.7893 99.519 40.056 99.519 38.288C99.519 35.7227 100.108 33.4347 101.287 31.424C102.5 29.4133 104.476 28.1307 107.215 27.576C107.354 27.5413 107.406 27.5067 107.371 27.472C107.371 27.4027 107.302 27.3507 107.163 27.316C104.979 26.9347 103.367 25.964 102.327 24.404C101.287 22.8093 100.767 21.0067 100.767 18.996C100.767 17.6787 101.114 16.292 101.807 14.836C102.535 13.3453 103.592 12.0973 104.979 11.092C106.4 10.0867 108.064 9.584 109.971 9.584C111.912 9.584 113.559 10.0867 114.911 11.092C116.298 12.0973 117.338 13.3453 118.031 14.836C118.759 16.292 119.123 17.6787 119.123 18.996C119.123 21.0067 118.586 22.8093 117.511 24.404C116.471 25.964 114.876 26.9347 112.727 27.316C112.588 27.3507 112.502 27.4027 112.467 27.472C112.467 27.5067 112.536 27.5413 112.675 27.576C115.414 28.1307 117.372 29.4133 118.551 31.424C119.764 33.4347 120.371 35.7227 120.371 38.288C120.371 40.056 120.024 41.7893 119.331 43.488C118.672 45.1867 117.563 46.6253 116.003 47.804C114.478 48.948 112.467 49.52 109.971 49.52ZM109.971 26.9C111.947 26.9 113.351 26.276 114.183 25.028C115.015 23.7453 115.431 21.7347 115.431 18.996C115.431 16.604 115.067 14.576 114.339 12.912C113.646 11.2133 112.19 10.364 109.971 10.364C106.296 10.364 104.459 13.2413 104.459 18.996C104.459 21.3533 104.858 23.26 105.655 24.716C106.452 26.172 107.891 26.9 109.971 26.9ZM109.971 48.74C111.843 48.74 113.247 48.22 114.183 47.18C115.119 46.1053 115.691 44.8573 115.899 43.436C116.142 41.98 116.263 40.264 116.263 38.288C116.263 35.5147 115.76 33.1227 114.755 31.112C113.784 29.1013 112.19 28.044 109.971 27.94C107.718 28.044 106.088 29.1013 105.083 31.112C104.112 33.1227 103.627 35.5147 103.627 38.288C103.627 40.264 103.748 41.98 103.991 43.436C104.234 44.8573 104.823 46.1053 105.759 47.18C106.695 48.22 108.099 48.74 109.971 48.74Z" fill="#7A3A14"/>
<line x1="75.5" x2="75.5" y2="61" stroke="#7A3A14"/>
<path d="M35.4256 89.3C34.3056 89.3 33.3656 88.96 32.6056 88.28C31.8456 87.58 31.4656 86.59 31.4656 85.31C31.4656 84.39 31.7756 83.61 32.3956 82.97C33.0156 82.31 33.6956 81.86 34.4356 81.62C34.8156 81.5 35.2556 81.39 35.7556 81.29C36.2756 81.17 36.6256 81.09 36.8056 81.05C37.8056 80.85 38.5556 80.67 39.0556 80.51C39.5556 80.33 39.8556 80.09 39.9556 79.79C39.9556 78.35 39.6756 77.15 39.1156 76.19C38.5756 75.23 37.6656 74.75 36.3856 74.75C35.5856 74.75 34.9856 75.04 34.5856 75.62C34.2056 76.18 34.0156 76.94 34.0156 77.9C34.0156 78.16 34.0656 78.35 34.1656 78.47C34.2656 78.57 34.4956 78.62 34.8556 78.62C35.0756 78.62 35.2656 78.57 35.4256 78.47C35.5856 78.37 35.6656 78.25 35.6656 78.11H35.9356V78.92H32.0056C32.0056 78.2 32.2156 77.49 32.6356 76.79C33.0556 76.07 33.6356 75.49 34.3756 75.05C35.1156 74.59 35.9356 74.36 36.8356 74.36C38.0356 74.36 38.9956 74.64 39.7156 75.2C40.4556 75.74 40.9756 76.4 41.2756 77.18C41.5956 77.94 41.7556 78.7 41.7556 79.46V85.97C41.7556 87.47 42.0756 88.22 42.7156 88.22C42.9156 88.22 43.0956 88.09 43.2556 87.83C43.4356 87.55 43.5256 87.27 43.5256 86.99H43.8256C43.8256 87.73 43.5956 88.3 43.1356 88.7C42.6956 89.1 42.1856 89.3 41.6056 89.3C40.9256 89.3 40.4756 89 40.2556 88.4C40.0556 87.8 39.9556 86.96 39.9556 85.88V84.5C39.9556 84.78 39.8156 85.31 39.5356 86.09C39.2756 86.87 38.8056 87.6 38.1256 88.28C37.4456 88.96 36.5456 89.3 35.4256 89.3ZM36.1156 88.46C36.7956 88.46 37.4256 88.19 38.0056 87.65C38.5856 87.11 39.0456 86.47 39.3856 85.73C39.7256 84.99 39.8956 84.37 39.8956 83.87V80.45C39.8956 80.51 39.7956 80.57 39.5956 80.63C39.3956 80.69 39.1456 80.75 38.8456 80.81C37.5456 81.15 36.5956 81.43 35.9956 81.65C35.0556 81.99 34.3656 82.47 33.9256 83.09C33.4856 83.69 33.2656 84.37 33.2656 85.13C33.2656 86.01 33.5056 86.79 33.9856 87.47C34.4856 88.13 35.1956 88.46 36.1156 88.46ZM53.026 81.38C53.646 81.4 54.306 81.56 55.006 81.86C55.706 82.16 56.296 82.57 56.776 83.09C57.276 83.61 57.526 84.19 57.526 84.83C57.526 86.17 56.936 87.2 55.756 87.92C54.576 88.64 53.086 89 51.286 89H45.316V88.16C45.976 88.3 46.456 88.37 46.756 88.37C47.276 88.37 47.536 88.19 47.536 87.83L47.506 81.14C47.486 80.16 47.476 78.9 47.476 77.36V76.31C47.476 75.87 47.156 75.65 46.516 75.65C46.216 75.65 45.816 75.7 45.316 75.8V74.99H51.496C52.876 74.99 54.086 75.23 55.126 75.71C56.186 76.17 56.716 76.92 56.716 77.96C56.716 78.64 56.536 79.23 56.176 79.73C55.816 80.23 55.346 80.61 54.766 80.87C54.206 81.13 53.626 81.26 53.026 81.26C52.986 81.26 52.966 81.28 52.966 81.32C52.966 81.36 52.986 81.38 53.026 81.38ZM51.556 75.41C50.736 75.41 50.156 75.43 49.816 75.47C49.496 75.51 49.336 75.66 49.336 75.92L49.306 81.02L52.156 80.99C52.996 80.93 53.666 80.65 54.166 80.15C54.666 79.63 54.916 78.93 54.916 78.05C54.916 77.15 54.596 76.49 53.956 76.07C53.316 75.63 52.516 75.41 51.556 75.41ZM51.256 88.58C52.356 88.54 53.206 88.39 53.806 88.13C54.426 87.87 54.846 87.5 55.066 87.02C55.306 86.52 55.426 85.88 55.426 85.1C55.426 83.98 55.156 83.14 54.616 82.58C54.096 82.02 53.286 81.72 52.186 81.68L49.276 81.71C49.276 84.53 49.296 86.57 49.336 87.83C49.336 88.15 49.486 88.36 49.786 88.46C50.106 88.54 50.596 88.58 51.256 88.58ZM68.717 77.12C68.717 77.8 68.747 78.32 68.807 78.68C68.887 79.02 69.027 79.28 69.227 79.46H68.687C68.507 79.22 68.377 78.97 68.297 78.71C68.237 78.43 68.177 78.08 68.117 77.66C68.037 77.14 67.937 76.74 67.817 76.46C67.717 76.16 67.507 75.92 67.187 75.74C66.887 75.54 66.437 75.44 65.837 75.44H63.587C63.147 75.44 62.847 75.55 62.687 75.77C62.547 75.99 62.477 76.33 62.477 76.79V87.2C62.477 87.72 62.517 88.1 62.597 88.34C62.697 88.58 62.907 88.7 63.227 88.7C63.387 88.7 63.637 88.65 63.977 88.55V89H59.027V88.55C59.367 88.65 59.617 88.7 59.777 88.7C60.137 88.7 60.367 88.58 60.467 88.34C60.567 88.08 60.617 87.7 60.617 87.2V76.79C60.617 76.29 60.567 75.92 60.467 75.68C60.367 75.42 60.137 75.29 59.777 75.29C59.617 75.29 59.367 75.34 59.027 75.44V74.99H68.717V77.12ZM71.5934 96.86C71.3134 96.9 71.1234 96.92 71.0234 96.92C70.5834 96.92 70.2234 96.81 69.9434 96.59C69.6834 96.37 69.5534 96.06 69.5534 95.66C69.5534 94.96 69.7734 94.61 70.2134 94.61C70.3934 94.61 70.6534 94.66 70.9934 94.76C71.3934 94.88 71.7234 94.94 71.9834 94.94C72.4434 94.94 72.8334 94.75 73.1534 94.37C73.4734 93.99 73.7134 93.54 73.8734 93.02L75.2234 88.97C75.0834 88.45 74.6734 87.31 73.9934 85.55C73.3334 83.77 72.9334 82.71 72.7934 82.37C71.7134 79.63 71.0234 77.83 70.7234 76.97C70.3234 75.91 69.7534 75.38 69.0134 75.38C68.9134 75.38 68.7834 75.4 68.6234 75.44V74.99H74.2034V75.44C73.9034 75.38 73.6434 75.35 73.4234 75.35C73.0234 75.35 72.7234 75.44 72.5234 75.62C72.3234 75.78 72.2734 75.96 72.3734 76.16L73.6334 79.7C74.5534 82.38 75.3534 84.63 76.0334 86.45L79.2434 76.73C79.3034 76.51 79.3334 76.31 79.3334 76.13C79.3334 75.57 79.0434 75.29 78.4634 75.29C78.2034 75.29 77.9334 75.34 77.6534 75.44V74.99H82.2434V75.44C82.0234 75.36 81.7934 75.32 81.5534 75.32C81.0734 75.32 80.6734 75.47 80.3534 75.77C80.0534 76.07 79.8434 76.39 79.7234 76.73L74.2634 93.05C73.8834 94.19 73.4934 95.08 73.0934 95.72C72.7134 96.38 72.2134 96.76 71.5934 96.86ZM88.8901 89.3C87.4101 89.3 86.1901 88.95 85.2301 88.25C84.2901 87.55 83.6001 86.64 83.1601 85.52C82.7401 84.38 82.5301 83.15 82.5301 81.83C82.5301 80.55 82.7501 79.35 83.1901 78.23C83.6301 77.09 84.2901 76.17 85.1701 75.47C86.0701 74.75 87.1401 74.39 88.3801 74.39C89.5201 74.39 90.5801 74.65 91.5601 75.17C92.5601 75.69 93.1301 76.35 93.2701 77.15C93.3101 77.43 93.3301 77.62 93.3301 77.72C93.3301 78.16 93.2201 78.52 93.0001 78.8C92.7801 79.06 92.4701 79.19 92.0701 79.19C91.3701 79.19 91.0201 78.97 91.0201 78.53C91.0201 78.35 91.0701 78.09 91.1701 77.75C91.2901 77.35 91.3501 77.02 91.3501 76.76C91.3501 76.36 91.2001 76.01 90.9001 75.71C90.6001 75.39 90.2401 75.15 89.8201 74.99C89.4001 74.83 89.0201 74.75 88.6801 74.75C87.4201 74.75 86.4301 75.38 85.7101 76.64C84.9901 77.88 84.6301 79.7 84.6301 82.1C84.6301 84.04 84.9801 85.63 85.6801 86.87C86.4001 88.11 87.5001 88.73 88.9801 88.73C90.0001 88.73 90.8401 88.42 91.5001 87.8C92.1601 87.18 92.6001 86.42 92.8201 85.52H93.4801C93.2001 86.56 92.6401 87.45 91.8001 88.19C90.9601 88.93 89.9901 89.3 88.8901 89.3ZM97.9072 88.55C98.2472 88.65 98.4972 88.7 98.6572 88.7C98.9772 88.7 99.1772 88.58 99.2572 88.34C99.3572 88.1 99.4072 87.72 99.4072 87.2V76.79C99.4072 76.31 99.3772 75.95 99.3172 75.71C99.2772 75.47 99.1572 75.35 98.9572 75.35H97.4272C96.7472 75.37 96.2272 75.49 95.8672 75.71C95.5272 75.91 95.2972 76.16 95.1772 76.46C95.0572 76.76 94.9572 77.16 94.8772 77.66C94.8172 78.06 94.7472 78.39 94.6672 78.65C94.6072 78.91 94.4872 79.16 94.3072 79.4H93.7672C93.9672 79.22 94.1072 78.96 94.1872 78.62C94.2472 78.26 94.2772 77.74 94.2772 77.06V74.99H106.667V77.06C106.667 77.74 106.697 78.26 106.757 78.62C106.837 78.96 106.977 79.22 107.177 79.4H106.637C106.457 79.16 106.327 78.91 106.247 78.65C106.187 78.39 106.127 78.06 106.067 77.66C105.987 77.16 105.887 76.76 105.767 76.46C105.647 76.16 105.407 75.91 105.047 75.71C104.707 75.49 104.197 75.37 103.517 75.35H101.927C101.727 75.35 101.587 75.48 101.507 75.74C101.447 76 101.417 76.35 101.417 76.79V87.2C101.417 87.7 101.467 88.08 101.567 88.34C101.667 88.58 101.897 88.7 102.257 88.7C102.417 88.7 102.667 88.65 103.007 88.55V89H97.9072V88.55ZM111.744 89.3C110.624 89.3 109.684 88.96 108.924 88.28C108.164 87.58 107.784 86.59 107.784 85.31C107.784 84.39 108.094 83.61 108.714 82.97C109.334 82.31 110.014 81.86 110.754 81.62C111.134 81.5 111.574 81.39 112.074 81.29C112.594 81.17 112.944 81.09 113.124 81.05C114.124 80.85 114.874 80.67 115.374 80.51C115.874 80.33 116.174 80.09 116.274 79.79C116.274 78.35 115.994 77.15 115.434 76.19C114.894 75.23 113.984 74.75 112.704 74.75C111.904 74.75 111.304 75.04 110.904 75.62C110.524 76.18 110.334 76.94 110.334 77.9C110.334 78.16 110.384 78.35 110.484 78.47C110.584 78.57 110.814 78.62 111.174 78.62C111.394 78.62 111.584 78.57 111.744 78.47C111.904 78.37 111.984 78.25 111.984 78.11H112.254V78.92H108.324C108.324 78.2 108.534 77.49 108.954 76.79C109.374 76.07 109.954 75.49 110.694 75.05C111.434 74.59 112.254 74.36 113.154 74.36C114.354 74.36 115.314 74.64 116.034 75.2C116.774 75.74 117.294 76.4 117.594 77.18C117.914 77.94 118.074 78.7 118.074 79.46V85.97C118.074 87.47 118.394 88.22 119.034 88.22C119.234 88.22 119.414 88.09 119.574 87.83C119.754 87.55 119.844 87.27 119.844 86.99H120.144C120.144 87.73 119.914 88.3 119.454 88.7C119.014 89.1 118.504 89.3 117.924 89.3C117.244 89.3 116.794 89 116.574 88.4C116.374 87.8 116.274 86.96 116.274 85.88V84.5C116.274 84.78 116.134 85.31 115.854 86.09C115.594 86.87 115.124 87.6 114.444 88.28C113.764 88.96 112.864 89.3 111.744 89.3ZM112.434 88.46C113.114 88.46 113.744 88.19 114.324 87.65C114.904 87.11 115.364 86.47 115.704 85.73C116.044 84.99 116.214 84.37 116.214 83.87V80.45C116.214 80.51 116.114 80.57 115.914 80.63C115.714 80.69 115.464 80.75 115.164 80.81C113.864 81.15 112.914 81.43 112.314 81.65C111.374 81.99 110.684 82.47 110.244 83.09C109.804 83.69 109.584 84.37 109.584 85.13C109.584 86.01 109.824 86.79 110.304 87.47C110.804 88.13 111.514 88.46 112.434 88.46Z" fill="#7A3A14"/>
<path d="M46.8254 123.77C47.5254 122.91 48.5854 121.79 50.0054 120.41C51.4854 118.95 52.6654 117.69 53.5454 116.63C54.4454 115.55 55.2054 114.29 55.8254 112.85C56.4654 111.39 56.7854 109.78 56.7854 108.02C56.7854 106.46 56.4554 105.21 55.7954 104.27C55.1554 103.31 54.2754 102.83 53.1554 102.83C52.5554 102.83 51.9854 103 51.4454 103.34C50.9054 103.66 50.4754 104.1 50.1554 104.66C49.8354 105.22 49.6754 105.82 49.6754 106.46C49.6754 107.02 49.7454 107.41 49.8854 107.63C50.0454 107.83 50.2754 107.99 50.5754 108.11C50.7954 108.19 50.9554 108.29 51.0554 108.41C51.1554 108.51 51.2054 108.71 51.2054 109.01C51.2054 109.35 51.0854 109.65 50.8454 109.91C50.6054 110.17 50.2854 110.3 49.8854 110.3C49.4054 110.3 48.9754 110.09 48.5954 109.67C48.2154 109.25 48.0254 108.72 48.0254 108.08C48.0254 106.8 48.3154 105.73 48.8954 104.87C49.4754 103.99 50.1854 103.34 51.0254 102.92C51.8654 102.5 52.6654 102.29 53.4254 102.29C54.4254 102.29 55.3254 102.53 56.1254 103.01C56.9454 103.49 57.5854 104.19 58.0454 105.11C58.5254 106.01 58.7654 107.08 58.7654 108.32C58.7654 110.06 58.4154 111.63 57.7154 113.03C57.0354 114.41 56.2154 115.59 55.2554 116.57C54.3154 117.55 53.1254 118.63 51.6854 119.81C50.9454 120.41 50.3454 120.91 49.8854 121.31C49.4454 121.71 49.0754 122.11 48.7754 122.51C48.7154 122.59 48.6854 122.69 48.6854 122.81C48.6854 122.99 48.7854 123.08 48.9854 123.08L53.6954 123.11C54.8754 123.11 55.7754 123.01 56.3954 122.81C57.0354 122.61 57.5154 122.17 57.8354 121.49C58.1754 120.81 58.3454 119.74 58.3454 118.28H58.9154V125H46.8254V123.77ZM68.3691 125.3C66.8291 125.3 65.5291 124.79 64.4691 123.77C63.4091 122.75 62.6191 121.38 62.0991 119.66C61.5791 117.92 61.3191 115.98 61.3191 113.84C61.3191 110.56 61.9191 107.9 63.1191 105.86C64.3191 103.82 66.0691 102.8 68.3691 102.8C69.8491 102.8 71.1191 103.28 72.1791 104.24C73.2591 105.2 74.0791 106.52 74.6391 108.2C75.1991 109.86 75.4791 111.74 75.4791 113.84C75.4791 115.94 75.1991 117.86 74.6391 119.6C74.0791 121.34 73.2591 122.73 72.1791 123.77C71.1191 124.79 69.8491 125.3 68.3691 125.3ZM68.3691 124.7C69.6891 124.7 70.6791 124.22 71.3391 123.26C72.0191 122.3 72.4591 121.06 72.6591 119.54C72.8591 118 72.9591 116.1 72.9591 113.84C72.9591 111.6 72.8591 109.75 72.6591 108.29C72.4591 106.83 72.0191 105.65 71.3391 104.75C70.6791 103.85 69.6891 103.4 68.3691 103.4C66.9891 103.4 65.9691 103.85 65.3091 104.75C64.6491 105.63 64.2391 106.77 64.0791 108.17C63.9191 109.57 63.8391 111.46 63.8391 113.84C63.8391 116.24 63.9191 118.17 64.0791 119.63C64.2391 121.09 64.6491 122.3 65.3091 123.26C65.9691 124.22 66.9891 124.7 68.3691 124.7ZM76.9719 123.77C77.6719 122.91 78.7319 121.79 80.1519 120.41C81.6319 118.95 82.8119 117.69 83.6919 116.63C84.5919 115.55 85.3519 114.29 85.9719 112.85C86.6119 111.39 86.9319 109.78 86.9319 108.02C86.9319 106.46 86.6019 105.21 85.9419 104.27C85.3019 103.31 84.4219 102.83 83.3019 102.83C82.7019 102.83 82.1319 103 81.5919 103.34C81.0519 103.66 80.6219 104.1 80.3019 104.66C79.9819 105.22 79.8219 105.82 79.8219 106.46C79.8219 107.02 79.8919 107.41 80.0319 107.63C80.1919 107.83 80.4219 107.99 80.7219 108.11C80.9419 108.19 81.1019 108.29 81.2019 108.41C81.3019 108.51 81.3519 108.71 81.3519 109.01C81.3519 109.35 81.2319 109.65 80.9919 109.91C80.7519 110.17 80.4319 110.3 80.0319 110.3C79.5519 110.3 79.1219 110.09 78.7419 109.67C78.3619 109.25 78.1719 108.72 78.1719 108.08C78.1719 106.8 78.4619 105.73 79.0419 104.87C79.6219 103.99 80.3319 103.34 81.1719 102.92C82.0119 102.5 82.8119 102.29 83.5719 102.29C84.5719 102.29 85.4719 102.53 86.2719 103.01C87.0919 103.49 87.7319 104.19 88.1919 105.11C88.6719 106.01 88.9119 107.08 88.9119 108.32C88.9119 110.06 88.5619 111.63 87.8619 113.03C87.1819 114.41 86.3619 115.59 85.4019 116.57C84.4619 117.55 83.2719 118.63 81.8319 119.81C81.0919 120.41 80.4919 120.91 80.0319 121.31C79.5919 121.71 79.2219 122.11 78.9219 122.51C78.8619 122.59 78.8319 122.69 78.8319 122.81C78.8319 122.99 78.9319 123.08 79.1319 123.08L83.8419 123.11C85.0219 123.11 85.9219 123.01 86.5419 122.81C87.1819 122.61 87.6619 122.17 87.9819 121.49C88.3219 120.81 88.4919 119.74 88.4919 118.28H89.0619V125H76.9719V123.77ZM97.1056 125.3C95.3656 125.3 93.9656 124.87 92.9056 124.01C91.8456 123.15 91.3156 122 91.3156 120.56C91.3156 119.88 91.4656 119.32 91.7656 118.88C92.0856 118.44 92.4856 118.22 92.9656 118.22C93.3856 118.22 93.7456 118.36 94.0456 118.64C94.3656 118.9 94.5256 119.2 94.5256 119.54C94.5256 119.82 94.4656 120.02 94.3456 120.14C94.2256 120.24 94.0356 120.33 93.7756 120.41C93.5156 120.49 93.3156 120.59 93.1756 120.71C93.0356 120.83 92.9656 121.06 92.9656 121.4C92.9656 121.88 93.0956 122.38 93.3556 122.9C93.6156 123.42 94.0256 123.86 94.5856 124.22C95.1656 124.58 95.9056 124.76 96.8056 124.76C97.8056 124.76 98.6456 124.44 99.3256 123.8C100.026 123.14 100.536 122.3 100.856 121.28C101.176 120.26 101.336 119.21 101.336 118.13C101.336 116.11 100.926 114.53 100.106 113.39C99.2856 112.25 98.0856 111.68 96.5056 111.68C96.1656 111.68 95.7956 111.74 95.3956 111.86C95.0156 111.98 94.4956 112.18 93.8356 112.46L92.7856 112.88C92.7456 112.9 92.6956 112.91 92.6356 112.91C92.4556 112.91 92.3656 112.84 92.3656 112.7L92.6956 102.8H101.666L101.696 107.3H101.096C101.096 106.44 101.036 105.83 100.916 105.47C100.816 105.09 100.626 104.85 100.346 104.75C100.086 104.63 99.6556 104.57 99.0556 104.57H97.7056H94.0756C93.8156 104.57 93.6456 104.62 93.5656 104.72C93.4856 104.8 93.4356 104.92 93.4156 105.08C93.1156 107.78 92.9656 110.15 92.9656 112.19C92.9656 112.25 92.9956 112.29 93.0556 112.31C93.1356 112.33 93.2156 112.32 93.2956 112.28C94.7756 111.56 96.1456 111.2 97.4056 111.2C97.8056 111.2 98.1056 111.22 98.3056 111.26C99.1256 111.4 99.9256 111.78 100.706 112.4C101.506 113.02 102.156 113.83 102.656 114.83C103.176 115.81 103.436 116.88 103.436 118.04C103.436 119.24 103.196 120.4 102.716 121.52C102.256 122.62 101.546 123.53 100.586 124.25C99.6256 124.95 98.4656 125.3 97.1056 125.3Z" fill="#7A3A14"/>
</svg>
